<svg width="372" height="375" viewBox="0 0 372 375" fill="none" xmlns="http://www.w3.org/2000/svg">
<path d="M0 30C0 13.4315 13.4315 0 30 0H103V225H30C13.4315 225 0 211.569 0 195V30Z" fill="#6A9C89"/>
<path d="M224 157C224 145.954 232.954 137 244 137H283C294.046 137 303 145.954 303 157V355C303 366.046 294.046 375 283 375H244C232.954 375 224 366.046 224 355V157Z" fill="#6A9C89"/>
<path d="M0 265C0 248.431 13.4315 235 30 235H113V319H0V265Z" fill="#6A9C89"/>
<path d="M0 336C0 318.115 0 309.172 5.31355 303.424C5.66901 303.039 6.03944 302.669 6.42398 302.314C12.1722 297 21.1148 297 39 297H269C286.885 297 295.828 297 301.576 302.314C301.961 302.669 302.331 303.039 302.686 303.424C308 309.172 308 318.115 308 336C308 353.885 308 362.828 302.686 368.576C302.331 368.961 301.961 369.331 301.576 369.686C295.828 375 286.885 375 269 375H39C21.1148 375 12.1722 375 6.42398 369.686C6.03944 369.331 5.66901 368.961 5.31355 368.576C0 362.828 0 353.885 0 336Z" fill="#6A9C89"/>
<path d="M37 0H172C188.569 0 202 13.4315 202 30V92C202 94.7614 199.761 97 197 97H37V0Z" fill="#6A9C89"/>
<path d="M37 128H181C197.569 128 211 141.431 211 158V225H37V128Z" fill="#6A9C89"/>
<path d="M245 137H367C369.761 137 372 139.239 372 142V211C372 235.853 351.853 256 327 256H245V137Z" fill="#6A9C89"/>
<path d="M252 254H327C351.853 254 372 274.147 372 299V370C372 372.761 369.761 375 367 375H252V254Z" fill="#6A9C89"/>
<path d="M237 0H272.5L324 114.5L237 53.1566V0Z" fill="#6A9C89"/>
<path d="M305 0H339C350.046 0 359 8.95431 359 20V108C359 119.046 350.046 128 339 128H307C305.895 128 305 127.105 305 126V0Z" fill="#6A9C89"/>
<path d="M218 20C218 8.95431 226.954 0 238 0H272V128H238C226.954 128 218 119.046 218 108V20Z" fill="#6A9C89"/>
<path d="M127 206H211V282H127V206Z" fill="#6A9C89"/>
<path d="M277 183H321V191C321 202.046 312.046 211 301 211H277V183Z" fill="white"/>
<path d="M281 297H304C315.046 297 324 305.954 324 317V325H281V297Z" fill="white"/>
</svg>
